<svg width="30" height="25" viewBox="0 0 30 25" fill="none" xmlns="http://www.w3.org/2000/svg">
<path d="M29.7188 22.6071C29.9062 22.8414 29.9531 23.1227 29.9531 23.4508C29.9531 23.6852 29.9062 23.9196 29.8125 24.1539C29.5312 24.6227 29.0156 24.9039 28.5 24.9039H1.5C0.890625 24.9039 0.421875 24.6227 0.140625 24.1539C0.046875 23.9196 0 23.6852 0 23.4039C0 23.1227 0.046875 22.8414 0.234375 22.6071L13.7344 1.60706C13.9688 1.18518 14.4844 0.903931 15 0.903931C15.4688 0.903931 15.9844 1.18518 16.2188 1.60706L29.7188 22.6071ZM15 5.21643L10.1719 12.6227L12 14.4039L15 11.4039H18.9844L15 5.21643Z" fill="#0F7D20"/>
</svg>
