<svg width="20" height="25" viewBox="0 0 20 25" fill="none" xmlns="http://www.w3.org/2000/svg">
<path d="M18.7188 18.6696C19 18.9977 19.0469 19.4196 18.8594 19.7946C18.7188 20.1696 18.2969 20.4039 17.875 20.4039H11.5V21.5758L12.9062 23.8258C13.1406 24.3414 12.7656 24.9508 12.2031 24.9508H7.75C7.1875 24.9508 6.8125 24.3414 7.04688 23.8258L8.5 21.5758V20.4039H2.07812C1.65625 20.4039 1.23438 20.1696 1.09375 19.7946C0.90625 19.4196 0.953125 18.9977 1.23438 18.6696L4.98438 14.4039H3.53125C3.10938 14.4039 2.73438 14.1696 2.59375 13.7946C2.40625 13.4196 2.45312 12.9977 2.73438 12.6696L6.39062 8.40393H5.03125C4.60938 8.40393 4.23438 8.16956 4.04688 7.79456C3.90625 7.41956 3.95312 6.95081 4.28125 6.66956L9.4375 1.13831C9.71875 0.857056 10.2344 0.857056 10.5156 1.13831L15.6719 6.66956C16 6.95081 16.0469 7.41956 15.9062 7.79456C15.7188 8.16956 15.3438 8.40393 14.9219 8.40393H13.5625L17.2188 12.6696C17.5 12.9977 17.5469 13.4196 17.3594 13.7946C17.2188 14.1696 16.8438 14.4039 16.4219 14.4039H14.9688L18.7188 18.6696Z" fill="#0F7D20"/>
</svg>
