<svg width="21" height="25" viewBox="0 0 21 25" fill="none" xmlns="http://www.w3.org/2000/svg">
<path d="M10.5 12.9039C7.17188 12.9039 4.5 10.2321 4.5 6.90393C4.5 3.62268 7.17188 0.903931 10.5 0.903931C13.7812 0.903931 16.5 3.62268 16.5 6.90393C16.5 10.2321 13.7812 12.9039 10.5 12.9039ZM14.6719 14.4039C18.1406 14.4039 21 17.2633 21 20.7321V22.6539C21 23.9196 19.9688 24.9039 18.75 24.9039H2.25C0.984375 24.9039 0 23.9196 0 22.6539V20.7321C0 17.2633 2.8125 14.4039 6.28125 14.4039H7.07812C8.10938 14.9196 9.28125 15.1539 10.5 15.1539C11.7188 15.1539 12.8438 14.9196 13.875 14.4039H14.6719Z" fill="#0F7D20"/>
</svg>
